<?xml version="1.0" standalone="no"?>
<!DOCTYPE svg PUBLIC "-//W3C//DTD SVG 20010904//EN"
 "http://www.w3.org/TR/2001/REC-SVG-20010904/DTD/svg10.dtd">
<svg version="1.0" xmlns="http://www.w3.org/2000/svg"
 width="700.000000pt" height="700.000000pt" viewBox="0 0 700.000000 700.000000"
 preserveAspectRatio="xMidYMid meet">
<metadata>
Created by potrace 1.11, written by Peter Selinger 2001-2013
</metadata>
<g transform="translate(0.000000,700.000000) scale(0.100000,-0.100000)"
fill="#000000" stroke="none">
<path d="M3474 6980 c-38 -10 -92 -29 -120 -42 -75 -36 -187 -99 -206 -116
-10 -8 -18 -11 -18 -6 0 5 -4 4 -8 -2 -4 -6 -25 -21 -47 -33 -22 -12 -62 -34
-90 -51 -27 -16 -63 -36 -80 -44 -16 -8 -51 -28 -77 -43 -83 -50 -292 -168
-309 -175 -9 -4 -20 -11 -23 -17 -3 -5 -21 -13 -39 -16 -17 -4 -54 -24 -82
-44 -52 -40 -123 -82 -190 -115 -22 -11 -42 -23 -45 -26 -5 -5 -39 -25 -170
-98 -60 -33 -281 -160 -300 -172 -8 -5 -49 -28 -90 -51 -142 -79 -186 -116
-271 -222 -43 -54 -71 -111 -102 -207 -20 -63 -21 -88 -24 -820 -3 -836 -3
-801 1 -2850 3 -1437 3 -1456 23 -1510 51 -137 127 -226 243 -283 l65 -32 360
0 c198 1 367 3 375 6 86 28 182 98 241 175 24 31 76 164 83 209 3 22 5 412 6
868 0 455 3 827 5 827 2 0 19 -8 37 -19 18 -10 123 -70 233 -133 110 -63 220
-126 245 -140 25 -14 74 -42 108 -62 35 -20 67 -36 72 -36 4 0 13 -6 20 -14
14 -18 163 -76 195 -76 12 0 38 -7 58 -15 56 -23 94 -26 134 -11 36 14 105 34
147 42 30 6 228 106 246 124 3 3 27 17 55 30 27 14 58 33 69 43 11 9 24 17 29
17 5 0 21 9 37 20 15 11 29 17 32 14 3 -2 11 2 18 11 7 8 19 15 26 15 8 0 14
4 14 9 0 5 8 11 18 14 9 3 42 20 72 37 30 18 69 39 85 49 17 9 32 18 35 21 3
3 30 18 60 34 30 16 62 34 70 41 8 7 30 18 48 26 17 8 32 17 32 20 0 4 16 10
35 13 20 4 50 19 68 34 18 15 41 32 52 39 62 37 367 211 405 232 25 13 52 29
60 35 8 6 33 21 55 33 52 27 90 49 198 112 49 28 92 51 95 51 7 0 16 7 106 80
76 62 159 184 190 280 22 67 25 80 32 150 10 93 10 104 1 123 -4 9 -4 17 0 17
10 0 9 293 -1 309 -4 6 -4 11 1 11 9 0 9 247 0 256 -4 4 -3 14 1 23 6 13 8
134 2 151 -5 15 -6 50 -1 50 9 0 6 124 -3 138 -4 7 -4 12 1 12 10 0 9 143 -1
159 -4 6 -4 11 1 11 10 0 9 133 -1 149 -4 6 -4 11 1 11 10 0 9 293 -1 309 -4
6 -4 11 1 11 7 0 9 243 3 260 -1 3 -1 10 0 15 3 11 3 117 0 125 -1 3 -3 21 -5
40 -8 82 -20 126 -60 215 -10 22 -19 43 -19 46 -2 15 -92 121 -135 158 -45 39
-135 101 -147 101 -2 0 -21 11 -42 23 -20 13 -62 38 -92 55 -150 84 -216 122
-227 132 -7 5 -14 10 -17 10 -3 0 -58 31 -123 68 -65 37 -125 71 -133 75 -8 4
-24 13 -35 20 -11 7 -50 29 -87 50 -37 21 -71 43 -75 50 -10 16 -75 47 -97 47
-9 0 -16 4 -16 9 0 5 -8 11 -17 14 -10 3 -40 19 -68 35 -27 16 -68 39 -90 52
-22 12 -85 48 -140 80 -55 32 -118 68 -140 80 -22 13 -53 31 -70 41 -16 11
-42 24 -57 30 -16 6 -28 15 -28 20 0 5 -5 9 -11 9 -6 0 -66 31 -132 69 -67 38
-153 79 -192 91 -98 31 -255 35 -351 10z"/>
</g>
</svg>
