<svg width="469" height="387" viewBox="0 0 469 387" fill="none" xmlns="http://www.w3.org/2000/svg">
<g clip-path="url(#clip0)">
<path d="M55.7729 221.47L53.6149 218.141L53.5315 218.012L53.3902 217.952L25.2953 206.067C23.919 205.38 22.2568 201.653 21.1554 196.781C20.0799 192.023 19.8411 187.649 20.5749 186.145L20.6122 186.068L20.6221 185.984L25.5737 143.567C26.193 142.344 27.0236 141.842 28.2569 141.942C29.4737 142.041 30.9535 142.722 32.4899 143.472C32.625 143.537 32.7604 143.604 32.8962 143.67C33.0309 143.736 33.166 143.802 33.3016 143.869L75.3185 166.088L75.3257 166.092L75.3331 166.096C78.5545 167.667 79.897 171.566 78.3258 174.787L78.2837 174.874L78.2766 174.969L75.0612 218.273C74.341 219.574 71.4373 221.089 68.0792 221.904C64.0007 222.895 60.1583 222.733 57.5372 221.459C56.9602 221.179 56.4574 221.309 56.0903 221.404C55.9752 221.434 55.8573 221.464 55.7729 221.47Z" fill="#BCA3FF"/>
<path d="M32.2706 143.921C30.7788 143.193 29.3462 142.533 28.2161 142.441C27.4764 142.38 26.7054 142.498 26.0595 143.716L21.1185 186.042L21.0988 186.211L21.0241 186.364C20.3575 187.731 20.6236 192.161 21.6429 196.671C22.8671 202.086 24.4978 205.093 25.5056 205.613L53.5848 217.492L53.8674 217.611L54.0343 217.869L56.0052 220.91C56.401 220.808 57.0379 220.661 57.7555 221.01C59.0711 221.649 60.6938 221.995 62.5785 222.039C64.2701 222.078 66.1313 221.863 67.9609 221.419C71.4807 220.563 73.9268 219.118 74.5711 218.119L77.7778 174.932L77.792 174.741L77.8763 174.568C79.3266 171.595 78.0873 167.995 75.1137 166.545L75.099 166.538L75.0846 166.53L33.0747 144.314C32.9414 144.249 32.8085 144.184 32.6761 144.119C32.5405 144.053 32.4054 143.987 32.2706 143.921ZM32.709 143.022C32.9804 143.154 33.2532 143.289 33.5278 143.423L75.5521 165.646C79.0268 167.341 80.4698 171.532 78.775 175.006L75.5521 218.413C74.1082 221.373 63.4604 224.894 57.3184 221.909C56.5664 221.544 55.9757 222.16 55.4615 221.909L53.1952 218.413L25.0869 206.521C21.6122 204.827 18.4305 189.4 20.1253 185.926L25.0869 143.423C26.6477 140.223 29.5464 141.48 32.709 143.022Z" fill="#2F2C39"/>
<path d="M251.575 186.216V84.078C251.569 79.5991 250.386 75.2005 248.143 71.3237C245.9 67.4468 242.677 64.2283 238.797 61.991L149.353 10.921C145.467 8.67976 141.06 7.49994 136.575 7.49994C132.089 7.49994 127.682 8.67976 123.797 10.921L34.3527 61.99C30.4725 64.2273 27.2491 67.4461 25.0062 71.3231C22.7634 75.2001 21.5799 79.599 21.5747 84.078V186.216C21.5801 190.695 22.7636 195.094 25.0065 198.97C27.2494 202.847 30.4726 206.066 34.3527 208.303L123.797 259.372C127.682 261.613 132.089 262.793 136.575 262.793C141.06 262.793 145.467 261.613 149.353 259.372L238.797 208.303C242.677 206.066 245.9 202.847 248.143 198.97C250.386 195.094 251.569 190.695 251.575 186.216Z" fill="#BCA3FF" stroke="#5E38C7" stroke-width="15" stroke-linecap="round" stroke-linejoin="round"/>
<path d="M25.0215 70.8L136.574 135.275L248.127 70.8" fill="#BCA3FF"/>
<path d="M25.0215 70.8L136.574 135.275L248.127 70.8" stroke="#5E38C7" stroke-width="15" stroke-linecap="round" stroke-linejoin="round"/>
<path d="M79.1216 35.69L136.575 68.89L194.028 35.69" fill="#BCA3FF"/>
<path d="M79.1216 35.69L136.575 68.89L194.028 35.69" stroke="#5E38C7" stroke-width="15" stroke-linecap="round" stroke-linejoin="round"/>
<path d="M79.0277 234.604V168.347L21.5747 135.147" fill="#BCA3FF"/>
<path d="M79.0277 234.604V168.347L21.5747 135.147" stroke="#5E38C7" stroke-width="15" stroke-linecap="round" stroke-linejoin="round"/>
<path d="M251.575 135.147L194.122 168.347V234.609" fill="#BCA3FF"/>
<path d="M251.575 135.147L194.122 168.347V234.609" stroke="#5E38C7" stroke-width="15" stroke-linecap="round" stroke-linejoin="round"/>
<path d="M136.575 263.841V135.147" stroke="#5E38C7" stroke-width="15" stroke-linecap="round" stroke-linejoin="round"/>
<path d="M21.4609 338.971L20.0806 139.138L75.0778 166.81L76.6479 335.876L21.4609 338.971Z" fill="#BCA3FF"/>
<path d="M20.586 139.952L21.9571 338.443L76.1433 335.404L74.5805 167.119L20.586 139.952ZM19.5747 138.324L75.5747 166.5L77.1521 336.349L20.9643 339.5L19.5747 138.324Z" fill="#2F2C39"/>
<path d="M25.883 137.147L74.94 167.147C77.005 167.151 76.575 178.498 76.575 185.349V325.576C76.575 334.923 70.307 342.5 62.575 342.5H35.575C27.843 342.5 21.575 334.923 21.575 325.576V185.349C21.97 176.083 19.575 137.284 25.883 137.147Z" stroke="#5E38C7" stroke-width="15"/>
<path d="M107.49 294.44H127.29V301.7H128.61C130.003 298.693 131.983 296.493 134.55 295.1C137.117 293.633 140.05 292.9 143.35 292.9C148.85 292.9 153.287 294.697 156.66 298.29C160.033 301.883 161.83 307.127 162.05 314.02L153.03 315.34C153.03 310.28 151.82 306.65 149.4 304.45C146.98 302.177 144.01 301.04 140.49 301.04C138.217 301.04 136.237 301.48 134.55 302.36C132.937 303.24 131.58 304.45 130.48 305.99C129.38 307.53 128.573 309.327 128.06 311.38C127.547 313.433 127.29 315.633 127.29 317.98V341.08H141.15V349H106.17V341.08H118.71V302.36H107.49V294.44ZM218.624 339.76H217.304C215.544 343.427 213.087 346.14 209.934 347.9C206.854 349.66 203.59 350.54 200.144 350.54C196.55 350.54 193.214 349.953 190.134 348.78C187.054 347.533 184.34 345.737 181.994 343.39C179.72 340.97 177.924 338.037 176.604 334.59C175.284 331.143 174.624 327.147 174.624 322.6V320.84C174.624 316.367 175.284 312.407 176.604 308.96C177.924 305.513 179.72 302.617 181.994 300.27C184.34 297.85 187.054 296.017 190.134 294.77C193.214 293.523 196.477 292.9 199.924 292.9C203.664 292.9 207.037 293.743 210.044 295.43C213.124 297.043 215.544 299.573 217.304 303.02H218.624V294.44H227.204V337.78C227.204 339.98 228.194 341.08 230.174 341.08H232.924V349H227.094C224.6 349 222.547 348.193 220.934 346.58C219.394 344.967 218.624 342.913 218.624 340.42V339.76ZM201.024 342.4C203.59 342.4 205.937 341.923 208.064 340.97C210.264 340.017 212.134 338.66 213.674 336.9C215.214 335.14 216.424 333.05 217.304 330.63C218.184 328.137 218.624 325.387 218.624 322.38V321.06C218.624 318.127 218.184 315.45 217.304 313.03C216.424 310.537 215.177 308.41 213.564 306.65C212.024 304.89 210.154 303.533 207.954 302.58C205.827 301.553 203.517 301.04 201.024 301.04C198.457 301.04 196.11 301.517 193.984 302.47C191.857 303.423 189.987 304.78 188.374 306.54C186.834 308.227 185.624 310.317 184.744 312.81C183.864 315.23 183.424 317.907 183.424 320.84V322.6C183.424 328.833 185.037 333.71 188.264 337.23C191.564 340.677 195.817 342.4 201.024 342.4ZM288.947 340.64H287.627C285.867 343.94 283.447 346.433 280.367 348.12C277.36 349.733 274.06 350.54 270.467 350.54C266.8 350.54 263.354 349.917 260.127 348.67C256.9 347.423 254.04 345.627 251.547 343.28C249.127 340.933 247.184 338.037 245.717 334.59C244.324 331.07 243.627 327.073 243.627 322.6V320.84C243.627 316.44 244.36 312.517 245.827 309.07C247.294 305.55 249.237 302.617 251.657 300.27C254.077 297.85 256.9 296.017 260.127 294.77C263.354 293.523 266.727 292.9 270.247 292.9C274.207 292.9 277.654 293.78 280.587 295.54C283.594 297.227 285.94 299.72 287.627 303.02H288.947V294.44H297.527V362.42C297.527 364.913 296.72 366.967 295.107 368.58C293.567 370.193 291.55 371 289.057 371H253.527V363.08H285.977C287.957 363.08 288.947 361.98 288.947 359.78V340.64ZM270.687 342.4C273.254 342.4 275.637 341.923 277.837 340.97C280.037 340.017 281.944 338.66 283.557 336.9C285.244 335.14 286.564 333.05 287.517 330.63C288.47 328.137 288.947 325.387 288.947 322.38V321.06C288.947 318.127 288.47 315.45 287.517 313.03C286.564 310.537 285.244 308.41 283.557 306.65C281.944 304.89 280 303.533 277.727 302.58C275.527 301.553 273.18 301.04 270.687 301.04C268.12 301.04 265.7 301.517 263.427 302.47C261.227 303.423 259.284 304.78 257.597 306.54C255.984 308.3 254.7 310.39 253.747 312.81C252.867 315.23 252.427 317.907 252.427 320.84V322.6C252.427 325.68 252.867 328.43 253.747 330.85C254.7 333.27 255.984 335.36 257.597 337.12C259.284 338.807 261.227 340.127 263.427 341.08C265.627 341.96 268.047 342.4 270.687 342.4ZM368.401 349H359.821V309.84C359.821 307.273 359.234 305.183 358.061 303.57C356.887 301.883 355.017 301.04 352.451 301.04C350.031 301.04 348.051 301.957 346.511 303.79C345.044 305.55 344.311 308.3 344.311 312.04V349H335.731V309.4C335.731 306.98 335.071 305 333.751 303.46C332.431 301.847 330.671 301.04 328.471 301.04C325.831 301.04 323.777 301.993 322.311 303.9C320.917 305.807 320.221 308.3 320.221 311.38V349H311.641V294.44H320.221V300.38H321.541C322.494 297.813 323.887 295.943 325.721 294.77C327.554 293.523 329.717 292.9 332.211 292.9C334.851 292.9 337.014 293.597 338.701 294.99C340.461 296.383 341.671 298.18 342.331 300.38H343.651C346.144 295.393 350.104 292.9 355.531 292.9C359.637 292.9 362.791 294.22 364.991 296.86C367.264 299.427 368.401 302.8 368.401 306.98V349ZM423.984 339.76H422.664C420.904 343.427 418.447 346.14 415.294 347.9C412.214 349.66 408.951 350.54 405.504 350.54C401.911 350.54 398.574 349.953 395.494 348.78C392.414 347.533 389.701 345.737 387.354 343.39C385.081 340.97 383.284 338.037 381.964 334.59C380.644 331.143 379.984 327.147 379.984 322.6V320.84C379.984 316.367 380.644 312.407 381.964 308.96C383.284 305.513 385.081 302.617 387.354 300.27C389.701 297.85 392.414 296.017 395.494 294.77C398.574 293.523 401.837 292.9 405.284 292.9C409.024 292.9 412.397 293.743 415.404 295.43C418.484 297.043 420.904 299.573 422.664 303.02H423.984V294.44H432.564V337.78C432.564 339.98 433.554 341.08 435.534 341.08H438.284V349H432.454C429.961 349 427.907 348.193 426.294 346.58C424.754 344.967 423.984 342.913 423.984 340.42V339.76ZM406.384 342.4C408.951 342.4 411.297 341.923 413.424 340.97C415.624 340.017 417.494 338.66 419.034 336.9C420.574 335.14 421.784 333.05 422.664 330.63C423.544 328.137 423.984 325.387 423.984 322.38V321.06C423.984 318.127 423.544 315.45 422.664 313.03C421.784 310.537 420.537 308.41 418.924 306.65C417.384 304.89 415.514 303.533 413.314 302.58C411.187 301.553 408.877 301.04 406.384 301.04C403.817 301.04 401.471 301.517 399.344 302.47C397.217 303.423 395.347 304.78 393.734 306.54C392.194 308.227 390.984 310.317 390.104 312.81C389.224 315.23 388.784 317.907 388.784 320.84V322.6C388.784 328.833 390.397 333.71 393.624 337.23C396.924 340.677 401.177 342.4 406.384 342.4Z" fill="#5E38C7"/>
</g>
<path d="M377.56 227.24H396.64V262.88C396.64 264.96 396.08 266.5 394.96 267.5C393.84 268.5 392.38 269 390.58 269H376.48V261.8H387.28C388.48 261.8 389.08 261.14 389.08 259.82V234.44H377.56V227.24ZM398.44 218.42C398.44 219.22 398.28 219.98 397.96 220.7C397.68 221.38 397.28 221.98 396.76 222.5C396.24 222.98 395.62 223.38 394.9 223.7C394.22 223.98 393.5 224.12 392.74 224.12C391.94 224.12 391.2 223.98 390.52 223.7C389.84 223.38 389.24 222.98 388.72 222.5C388.2 221.98 387.78 221.38 387.46 220.7C387.18 219.98 387.04 219.22 387.04 218.42C387.04 217.62 387.18 216.88 387.46 216.2C387.78 215.48 388.2 214.88 388.72 214.4C389.24 213.88 389.84 213.48 390.52 213.2C391.2 212.88 391.94 212.72 392.74 212.72C393.5 212.72 394.22 212.88 394.9 213.2C395.62 213.48 396.24 213.88 396.76 214.4C397.28 214.88 397.68 215.48 397.96 216.2C398.28 216.88 398.44 217.62 398.44 218.42ZM416.098 235.64C416.098 236.6 416.598 237.3 417.598 237.74C418.598 238.14 420.418 238.48 423.058 238.76C426.098 239.08 428.578 240 430.498 241.52C432.418 243 433.378 245.08 433.378 247.76V248.12C433.378 251.08 432.298 253.44 430.138 255.2C427.978 256.96 424.938 257.84 421.018 257.84C418.698 257.84 416.718 257.54 415.078 256.94C413.438 256.34 412.078 255.6 410.998 254.72C409.918 253.8 409.078 252.8 408.478 251.72C407.918 250.6 407.538 249.52 407.338 248.48L414.298 246.2C414.618 247.48 415.278 248.6 416.278 249.56C417.318 250.52 418.898 251 421.018 251C422.898 251 424.178 250.72 424.858 250.16C425.578 249.56 425.938 248.92 425.938 248.24C425.938 247.84 425.838 247.48 425.638 247.16C425.478 246.8 425.158 246.48 424.678 246.2C424.198 245.88 423.538 245.62 422.698 245.42C421.898 245.22 420.878 245.06 419.638 244.94C416.278 244.66 413.598 243.8 411.598 242.36C409.638 240.88 408.658 238.72 408.658 235.88V235.52C408.658 234.04 408.978 232.74 409.618 231.62C410.258 230.5 411.098 229.56 412.138 228.8C413.178 228 414.378 227.4 415.738 227C417.098 226.6 418.498 226.4 419.938 226.4C421.818 226.4 423.438 226.64 424.798 227.12C426.198 227.56 427.378 228.16 428.338 228.92C429.298 229.64 430.078 230.46 430.678 231.38C431.278 232.26 431.738 233.12 432.058 233.96L425.218 236.72C424.858 235.64 424.238 234.8 423.358 234.2C422.478 233.56 421.338 233.24 419.938 233.24C418.658 233.24 417.698 233.48 417.058 233.96C416.418 234.4 416.098 234.96 416.098 235.64Z" fill="#BCA3FF"/>
<defs>
<clipPath id="clip0">
<rect width="468.575" height="386.5" fill="white"/>
</clipPath>
</defs>
</svg>
