<svg width="260" height="350" viewBox="0 0 260 350" fill="none" xmlns="http://www.w3.org/2000/svg">
<path d="M55.7729 221.47L53.6149 218.141L53.5315 218.012L53.3902 217.952L25.2953 206.067C23.919 205.38 22.2568 201.653 21.1554 196.781C20.0799 192.023 19.8411 187.649 20.5749 186.145L20.6122 186.068L20.6221 185.984L25.5737 143.567C26.193 142.343 27.0236 141.842 28.2569 141.942C29.4737 142.041 30.9535 142.722 32.4899 143.471C32.625 143.537 32.7604 143.604 32.8962 143.67C33.0309 143.736 33.166 143.802 33.3016 143.868L75.3185 166.088L75.3257 166.092L75.3331 166.096C78.5545 167.667 79.897 171.566 78.3258 174.787L78.2837 174.874L78.2766 174.969L75.0612 218.273C74.341 219.574 71.4373 221.088 68.0792 221.904C64.0007 222.895 60.1583 222.733 57.5372 221.459C56.9602 221.179 56.4574 221.309 56.0903 221.404C55.9752 221.434 55.8573 221.464 55.7729 221.47Z" fill="#BCA3FF"/>
<path d="M32.2706 143.921C30.7788 143.193 29.3462 142.533 28.2161 142.441C27.4764 142.38 26.7054 142.498 26.0595 143.716L21.1185 186.042L21.0988 186.211L21.0241 186.364C20.3575 187.731 20.6236 192.161 21.6429 196.671C22.8671 202.086 24.4978 205.093 25.5056 205.613L53.5848 217.492L53.8674 217.611L54.0343 217.869L56.0052 220.91C56.401 220.808 57.0379 220.661 57.7555 221.01C59.0711 221.649 60.6938 221.995 62.5785 222.039C64.2701 222.078 66.1313 221.863 67.9609 221.419C71.4807 220.563 73.9268 219.118 74.5711 218.119L77.7778 174.932L77.792 174.741L77.8763 174.568C79.3266 171.595 78.0873 167.995 75.1137 166.545L75.099 166.538L75.0846 166.53L33.0747 144.314C32.9414 144.249 32.8085 144.184 32.6761 144.119C32.5405 144.053 32.4054 143.987 32.2706 143.921ZM32.709 143.022C32.9804 143.154 33.2532 143.289 33.5278 143.423L75.5521 165.646C79.0268 167.341 80.4698 171.532 78.775 175.006L75.5521 218.413C74.1082 221.373 63.4604 224.894 57.3184 221.909C56.5664 221.544 55.9757 222.16 55.4615 221.909L53.1952 218.413L25.0869 206.521C21.6122 204.827 18.4305 189.4 20.1253 185.926L25.0869 143.423C26.6477 140.223 29.5464 141.48 32.709 143.022Z" fill="#5E38C7"/>
<path d="M251.575 186.216V84.0779C251.569 79.5991 250.386 75.2004 248.143 71.3236C245.9 67.4468 242.677 64.2282 238.797 61.991L149.353 10.921C145.467 8.6797 141.06 7.49988 136.575 7.49988C132.089 7.49988 127.682 8.6797 123.797 10.921L34.3527 61.99C30.4725 64.2273 27.2491 67.446 25.0062 71.323C22.7634 75.2001 21.5799 79.5989 21.5747 84.0779V186.216C21.5801 190.695 22.7636 195.093 25.0065 198.97C27.2494 202.847 30.4726 206.066 34.3527 208.303L123.797 259.372C127.682 261.613 132.089 262.793 136.575 262.793C141.06 262.793 145.467 261.613 149.353 259.372L238.797 208.303C242.677 206.066 245.9 202.847 248.143 198.97C250.386 195.093 251.569 190.695 251.575 186.216V186.216Z" fill="#BCA3FF" stroke="#5E38C7" stroke-width="15" stroke-linecap="round" stroke-linejoin="round"/>
<path d="M25.0215 70.7999L136.574 135.275L248.127 70.7999" fill="#BCA3FF"/>
<path d="M25.0215 70.7999L136.574 135.275L248.127 70.7999" stroke="#5E38C7" stroke-width="15" stroke-linecap="round" stroke-linejoin="round"/>
<path d="M79.1216 35.6899L136.575 68.8899L194.028 35.6899" fill="#BCA3FF"/>
<path d="M79.1216 35.6899L136.575 68.8899L194.028 35.6899" stroke="#5E38C7" stroke-width="15" stroke-linecap="round" stroke-linejoin="round"/>
<path d="M79.0277 234.604V168.347L21.5747 135.147" fill="#BCA3FF"/>
<path d="M79.0277 234.604V168.347L21.5747 135.147" stroke="#5E38C7" stroke-width="15" stroke-linecap="round" stroke-linejoin="round"/>
<path d="M251.575 135.147L194.122 168.347V234.609" fill="#BCA3FF"/>
<path d="M251.575 135.147L194.122 168.347V234.609" stroke="#5E38C7" stroke-width="15" stroke-linecap="round" stroke-linejoin="round"/>
<path d="M136.575 263.841V135.147" stroke="#5E38C7" stroke-width="15" stroke-linecap="round" stroke-linejoin="round"/>
<path d="M21.4609 338.971L20.0806 139.138L75.0778 166.81L76.6479 335.876L21.4609 338.971Z" fill="#BCA3FF"/>
<path d="M20.586 139.952L21.9571 338.443L76.1433 335.404L74.5805 167.119L20.586 139.952ZM19.5747 138.324L75.5747 166.5L77.1521 336.349L20.9643 339.5L19.5747 138.324Z" fill="#5E38C7"/>
<path d="M25.883 137.147L74.94 167.147C77.005 167.151 76.575 178.498 76.575 185.349V325.576C76.575 334.923 70.307 342.5 62.575 342.5H35.575C27.843 342.5 21.575 334.923 21.575 325.576V185.349C21.97 176.083 19.575 137.284 25.883 137.147Z" stroke="#5E38C7" stroke-width="15"/>
</svg>
